<?xml version="1.0" encoding="UTF-8"?>
<svg id="Layer_1" data-name="Layer 1" xmlns="http://www.w3.org/2000/svg" viewBox="0 0 1141.21 344.89">
  <g>
    <path d="M464.22,244.08V99.54h46.09l14.89,48.32c2.04,6.71,5.1,21.27,7.85,41.71h2.14c2.96-20.44,5.91-35.1,7.95-41.81l14.17-48.21h46.19v144.54h-35.9l.1-54.2c0-9.81.31-20.44,1.33-33.45l-2.14-.31-20.29,87.96h-25.8l-20.09-88.06-2.14.31c.92,13.11,1.22,23.75,1.22,33.55l.1,54.2h-35.69Z"/>
    <path d="M612.55,244.08l32.94-144.54h48.34l33.65,144.54h-39.16l-2.85-17.34h-34.37l-2.85,17.34h-35.69ZM656.6,199.89h23.45l-6.22-33.97c-1.94-10.53-3.57-21.16-4.49-32.73h-2.14c-.82,11.56-2.35,22.2-4.28,32.73l-6.32,33.97Z"/>
    <path d="M736.28,244.08v-113.88h-29.06v-30.66h95.24v30.66h-29.06v113.88h-37.12Z"/>
    <path d="M811.28,244.08V99.54h37.12v144.54h-37.12Z"/>
    <path d="M857.22,244.07V99.53h37.12v20.96c0,13.11-.82,23.02-3.67,38.3l2.14.72,27.84-59.98h37.93l-29.57,56.58,31,87.96h-40.18l-16.32-58.54-9.18,16.21v42.33h-37.12Z"/>
    <path d="M957.72,199.63l34.77-3.92c.71,17.55,5.2,23.54,16.21,23.54,8.06,0,12.44-4.54,12.44-10.94,0-7.43-4.69-12.18-18.76-19.93l-14.07-7.74c-14.07-7.74-28.96-17.96-28.76-42.23.1-25.91,18.15-41.3,47.32-41.3,32.33,0,47.32,14.97,47.72,45.74l-32.53,3.41c-.2-15.59-5-21.27-15.7-21.27-6.93,0-11.73,4.23-11.73,10.01,0,5.27,2.75,9.6,17.85,17.55l14.38,7.64c14.38,7.64,30.69,16.42,30.69,43.15s-18.76,43.88-50.58,43.88-48.64-15.59-49.25-47.59Z"/>
  </g>
  <g>
    <path d="M244.59,171.45c0,17.7-6.32,33.92-16.82,46.55l15.5-60.43c.87,4.5,1.32,9.14,1.32,13.89Z"/>
    <path d="M171.71,98.59c-40.24,0-72.86,32.62-72.86,72.86s32.62,72.86,72.86,72.86c22.54,0,42.7-10.23,56.05-26.31l15.5-60.43c-6.48-33.6-36.06-58.97-71.55-58.97ZM171.66,212.99c-22.96,0-41.55-18.61-41.55-41.55s18.6-41.56,41.55-41.56,41.55,18.61,41.55,41.56-18.6,41.55-41.55,41.55Z"/>
    <path d="M339.25,98.59c-22.42,0-42.46,10.12-55.82,26.04l-15.65,61.05c6.62,33.43,36.1,58.63,71.47,58.63,40.24,0,72.86-32.62,72.86-72.86s-32.62-72.86-72.86-72.86ZM338.96,212.99c-22.95,0-41.55-18.61-41.55-41.55s18.61-41.56,41.55-41.56,41.56,18.61,41.56,41.56-18.61,41.55-41.56,41.55Z"/>
    <path d="M283.43,124.63c-10.64,12.66-17.04,29-17.04,46.82,0,4.87.48,9.63,1.39,14.23l-19.97,77.89-29.77-7.63,9.72-37.94c10.51-12.62,16.82-28.85,16.82-46.55,0-4.75-.45-9.39-1.32-13.89l20.27-79.09,29.77,7.63-9.88,38.53Z"/>
    <path d="M283.43,124.63l-15.65,61.05c-.91-4.6-1.39-9.36-1.39-14.23,0-17.82,6.4-34.16,17.04-46.82Z"/>
  </g>
</svg>